<svg version="1.1" xmlns="http://www.w3.org/2000/svg" viewBox="0 0 70.02097032986876 70.02097032986876" width="70.02097032986876" height="70.02097032986876">
  <!-- svg-source:excalidraw -->
  
  <defs>
    <style class="style-fonts">
      
    </style>
    
  </defs>
  <rect x="0" y="0" width="70.02097032986876" height="70.02097032986876" fill="#ffffff"></rect><g stroke-linecap="round" transform="translate(10 9.999999999999773) rotate(0 25.01048516493438 25.010485164934494)"><path d="M50.02 25.01 C50.02 26.46, 49.89 27.93, 49.64 29.35 C49.39 30.78, 49.01 32.2, 48.51 33.56 C48.02 34.92, 47.39 36.26, 46.67 37.52 C45.95 38.77, 45.1 39.98, 44.17 41.09 C43.24 42.2, 42.2 43.24, 41.09 44.17 C39.98 45.1, 38.77 45.95, 37.52 46.67 C36.26 47.39, 34.92 48.02, 33.56 48.51 C32.2 49.01, 30.78 49.39, 29.35 49.64 C27.93 49.89, 26.46 50.02, 25.01 50.02 C23.56 50.02, 22.09 49.89, 20.67 49.64 C19.24 49.39, 17.82 49.01, 16.46 48.51 C15.1 48.02, 13.76 47.39, 12.51 46.67 C11.25 45.95, 10.04 45.1, 8.93 44.17 C7.83 43.24, 6.78 42.2, 5.85 41.09 C4.92 39.98, 4.07 38.77, 3.35 37.52 C2.63 36.26, 2 34.92, 1.51 33.56 C1.01 32.2, 0.63 30.78, 0.38 29.35 C0.13 27.93, 0 26.46, 0 25.01 C0 23.56, 0.13 22.09, 0.38 20.67 C0.63 19.24, 1.01 17.82, 1.51 16.46 C2 15.1, 2.63 13.76, 3.35 12.51 C4.07 11.25, 4.92 10.04, 5.85 8.93 C6.78 7.83, 7.83 6.78, 8.93 5.85 C10.04 4.92, 11.25 4.07, 12.51 3.35 C13.76 2.63, 15.1 2, 16.46 1.51 C17.82 1.01, 19.24 0.63, 20.67 0.38 C22.09 0.13, 23.56 0, 25.01 0 C26.46 0, 27.93 0.13, 29.35 0.38 C30.78 0.63, 32.2 1.01, 33.56 1.51 C34.92 2, 36.26 2.63, 37.52 3.35 C38.77 4.07, 39.98 4.92, 41.09 5.85 C42.2 6.78, 43.24 7.83, 44.17 8.93 C45.1 10.04, 45.95 11.25, 46.67 12.51 C47.39 13.76, 48.02 15.1, 48.51 16.46 C49.01 17.82, 49.39 19.24, 49.64 20.67 C49.89 22.09, 49.96 24.29, 50.02 25.01 C50.08 25.73, 50.08 24.29, 50.02 25.01" stroke="#355c7d" stroke-width="4" fill="none"></path></g><g stroke-linecap="round"><g transform="translate(20.730231469904993 33.91473760216604) rotate(0 11.689308185535992 -5.376410024278016)"><path d="M0 0 C8.58 -3.94, 17.15 -7.89, 23.38 -10.75 M0 0 C8.95 -4.11, 17.89 -8.23, 23.38 -10.75" stroke="#355c7d" stroke-width="4" fill="none"></path></g></g><mask></mask><g stroke-linecap="round"><g transform="translate(20.649184136186705 34.01758913751246) rotate(0 11.739652506855919 6.4207324761156315)"><path d="M0 0 C4.81 2.63, 9.62 5.26, 23.48 12.84 M0 0 C7.33 4.01, 14.66 8.02, 23.48 12.84" stroke="#355c7d" stroke-width="4" fill="none"></path></g></g><mask></mask></svg>