<svg width="49" height="58" viewBox="0 0 49 58" fill="none" xmlns="http://www.w3.org/2000/svg">
<path fill-rule="evenodd" clip-rule="evenodd" d="M47.1499 7.78661C48.8687 5.62532 48.4416 2.57052 46.196 0.963516C43.9503 -0.643488 40.7365 -0.194152 39.0177 1.96713L24.1025 20.722L9.18727 1.96713C7.46846 -0.194152 4.25462 -0.643487 2.00896 0.963516C-0.236706 2.57052 -0.663806 5.62532 1.055 7.78661L17.7223 28.7446L1.05459 49.7032C-0.66422 51.8645 -0.237119 54.9193 2.00854 56.5263C4.25421 58.1333 7.46805 57.6839 9.18685 55.5227L24.1025 36.7673L39.0181 55.5227C40.7369 57.6839 43.9507 58.1333 46.1964 56.5263C48.4421 54.9193 48.8692 51.8645 47.1503 49.7032L30.4826 28.7446L47.1499 7.78661Z" fill="white"/>
</svg>
