<svg width="88" height="81" viewBox="0 0 88 81" fill="none" xmlns="http://www.w3.org/2000/svg">
<path d="M13.6667 30.5087V56.5429C13.6667 63.3537 13.6667 66.7591 15.0836 69.3603C16.3299 71.6485 18.3187 73.5087 20.7648 74.6745C23.5456 76 27.186 76 34.4667 76H53.5333C60.8142 76 64.4542 76 67.2353 74.6745C69.6815 73.5087 71.6701 71.6485 72.9163 69.3603C74.3333 66.7591 74.3333 63.3537 74.3333 56.5429V11.143M83 39.5179L59.4561 15.0505C54.1014 9.48593 51.4243 6.70364 48.2709 5.67647C45.5019 4.77431 42.4877 4.77451 39.7182 5.67708C36.5653 6.70466 33.8886 9.48735 28.5349 15.0527L5 39.5179M52.6667 76V51.6786H35.3333V76" stroke="white" stroke-width="9" stroke-linecap="round" stroke-linejoin="round"/>
</svg>
