<svg width="91" height="111" viewBox="0 0 91 111" fill="none" xmlns="http://www.w3.org/2000/svg">
<path d="M18.0071 41.519C19.2384 39.805 19.2434 37.0191 18.0182 35.2965C16.793 33.5739 14.8016 33.567 13.5703 35.281L18.0071 41.519ZM0.926732 52.8807C-0.304578 54.595 -0.309526 57.381 0.915661 59.1035C2.14085 60.826 4.13224 60.833 5.36359 59.1193L0.926732 52.8807ZM5.36359 52.8807C4.13224 51.1671 2.14085 51.1741 0.915661 52.8966C-0.309526 54.619 -0.304578 57.4051 0.926732 59.1193L5.36359 52.8807ZM13.5703 76.7194C14.8016 78.433 16.793 78.426 18.0182 76.7035C19.2434 74.9811 19.2384 72.195 18.0071 70.4807L13.5703 76.7194ZM3.14516 51.6C1.40815 51.6 0 53.57 0 56C0 58.43 1.40815 60.4 3.14516 60.4V51.6ZM61.8548 60.4C63.5918 60.4 65 58.43 65 56C65 53.57 63.5918 51.6 61.8548 51.6V60.4ZM13.5703 35.281L0.926732 52.8807L5.36359 59.1193L18.0071 41.519L13.5703 35.281ZM0.926732 59.1193L13.5703 76.7194L18.0071 70.4807L5.36359 52.8807L0.926732 59.1193ZM3.14516 60.4H32.5H61.8548V51.6H3.14516V60.4Z" fill="white"/>
<path d="M29 73.1429C29 85.7663 36.4621 96 45.6667 96H62.3333C71.5379 96 79 85.7663 79 73.1429V38.8571C79 26.2335 71.5379 16 62.3333 16H45.6667C36.4621 16 29 26.2335 29 38.8571" stroke="white" stroke-width="9" stroke-linecap="round" stroke-linejoin="round"/>
</svg>
