<svg width="84" height="86" viewBox="0 0 84 86" fill="none" xmlns="http://www.w3.org/2000/svg">
<path fill-rule="evenodd" clip-rule="evenodd" d="M69.5627 77.4H14.4403C11.4735 77.4 9.28264 74.4028 10.4016 71.6465C15.5936 58.9013 27.7911 51.6 41.9994 51.6C56.2119 51.6 68.4094 58.9013 73.6014 71.6465C74.7204 74.4028 72.5295 77.4 69.5627 77.4ZM24.85 25.8C24.85 16.3141 32.5458 8.59994 41.9994 8.59994C51.4573 8.59994 59.1487 16.3141 59.1487 25.8C59.1487 35.2858 51.4573 43 41.9994 43C32.5458 43 24.85 35.2858 24.85 25.8ZM83.8138 75.8347C80.6969 61.391 70.9475 50.7313 58.1155 45.8938C64.9152 40.4027 68.881 31.523 67.4233 21.8007C65.7341 10.5218 56.3791 1.4963 45.0863 0.180501C29.4975 -1.6384 16.2753 10.5306 16.2753 25.8C16.2753 33.927 20.031 41.1681 25.8875 45.8938C13.0512 50.7313 3.30609 61.391 0.184901 75.8347C-0.946958 81.085 3.27179 86 8.62669 86H75.372C80.7312 86 84.95 81.085 83.8138 75.8347Z" fill="white"/>
</svg>
