<svg width="41" height="40" viewBox="0 0 41 40" fill="none" xmlns="http://www.w3.org/2000/svg">
<path d="M18.9713 3.94489C19.4556 2.83625 19.6979 2.28193 20.0351 2.11123C20.328 1.96292 20.672 1.96292 20.9649 2.11123C21.3022 2.28193 21.5444 2.83625 22.0288 3.94489L25.8867 12.7753C26.03 13.1031 26.1016 13.2669 26.2124 13.3924C26.3104 13.5035 26.4302 13.5923 26.5639 13.6531C26.7152 13.7218 26.8901 13.7406 27.2399 13.7783L36.6636 14.7931C37.8467 14.9205 38.4381 14.9842 38.7015 15.2586C38.9302 15.4971 39.0365 15.8309 38.9888 16.161C38.934 16.5409 38.4921 16.9471 37.6084 17.7598L30.5689 24.2321C30.3078 24.4722 30.1771 24.5924 30.0944 24.7386C30.0212 24.8682 29.9754 25.0119 29.9601 25.1604C29.9427 25.3284 29.9791 25.5039 30.0522 25.855L32.0184 35.3125C32.2652 36.5 32.3887 37.0936 32.2142 37.4338C32.0625 37.7297 31.7843 37.9359 31.4619 37.9916C31.0907 38.0556 30.5754 37.7525 29.5448 37.1461L21.3363 32.3156C21.0316 32.1363 20.8793 32.0469 20.7174 32.0117C20.5741 31.9807 20.426 31.9807 20.2826 32.0117C20.1207 32.0469 19.9684 32.1363 19.6638 32.3156L11.4553 37.1461C10.4247 37.7525 9.90944 38.0556 9.53827 37.9916C9.21585 37.9359 8.93751 37.7297 8.78595 37.4338C8.61149 37.0936 8.7349 36.5 8.98175 35.3125L10.9479 25.855C11.0209 25.5039 11.0573 25.3284 11.04 25.1604C11.0247 25.0119 10.9789 24.8682 10.9057 24.7386C10.823 24.5924 10.6923 24.4722 10.4311 24.2321L3.39177 17.7598C2.50802 16.9471 2.06614 16.5409 2.0112 16.161C1.9635 15.8309 2.0698 15.4971 2.29856 15.2586C2.56192 14.9842 3.15347 14.9205 4.33659 14.7931L13.7603 13.7783C14.11 13.7406 14.2849 13.7218 14.4361 13.6531C14.5699 13.5923 14.6897 13.5035 14.7877 13.3924C14.8985 13.2669 14.9701 13.1031 15.1133 12.7753L18.9713 3.94489Z" fill="#F67280" stroke="#F67280" stroke-width="4" stroke-linecap="round" stroke-linejoin="round"/>
</svg>
