<svg width="87" height="75" viewBox="0 0 87 75" fill="none" xmlns="http://www.w3.org/2000/svg">
<path d="M19.9371 52.0645C17.9396 48.7948 13.418 47.7371 8.84887 49.1127L6.44669 45.1804C5.59027 43.7784 5.16205 43.0774 5.20342 42.3169C5.23985 41.6478 5.52312 40.9489 6.01264 40.3203C6.56917 39.6057 7.5159 39.0274 9.40934 37.8707L59.4457 7.30447C61.3393 6.1477 62.286 5.56942 63.1758 5.40049C63.9587 5.25181 64.7096 5.31897 65.3215 5.59192C66.0171 5.90227 66.4453 6.60325 67.3018 8.00519L69.7037 11.9371C66.3941 15.3744 65.2714 19.8808 67.2688 23.1505C69.2662 26.4202 73.7876 27.4775 78.3566 26.1018L80.7585 30.0337C81.615 31.4357 82.0432 32.1367 82.0018 32.8972C81.9653 33.5664 81.6822 34.2649 81.1926 34.8937C80.6361 35.6083 79.6895 36.1866 77.7959 37.3433L27.7595 67.9096C25.866 69.0662 24.9193 69.6446 24.0294 69.8135C23.2466 69.962 22.4956 69.8953 21.8837 69.6222C21.1881 69.3118 20.7599 68.6109 19.9035 67.2088L17.5019 63.2775C20.8115 59.8402 21.9345 55.3343 19.9371 52.0645Z" stroke="white" stroke-width="9" stroke-linecap="round" stroke-linejoin="round"/>
</svg>
