<svg version="1.1" xmlns="http://www.w3.org/2000/svg" viewBox="0 0 589.6921521280437 497.8478819848001" width="589.6921521280437" height="497.8478819848001">
  <!-- svg-source:excalidraw -->
  
  <defs>
    <style class="style-fonts">
      
    </style>
    
  </defs>
  <rect x="0" y="0" width="589.6921521280437" height="497.8478819848001" fill="#e3b3ab"></rect><g stroke-linecap="round" transform="translate(107.00111572449441 57.17526681061304) rotate(0 229.06482491090992 27.379115020111726)"><path d="M13.69 0 C186.61 0.62, 355.48 -0.01, 444.44 0 C451.58 -2.42, 463.09 -0.53, 458.13 13.69 C458.37 24.01, 460.96 35.91, 458.13 41.07 C461.6 51, 450.6 53.99, 444.44 54.76 C342.05 58.08, 242.55 54.67, 13.69 54.76 C3.65 54.97, 2.35 55.53, 0 41.07 C3.92 34.38, 4.19 34.56, 0 13.69 C-2.07 7.51, 1.58 3.04, 13.69 0" stroke="none" stroke-width="0" fill="#bf687f"></path><path d="M13.69 0 C171.79 -4.34, 329.78 -4.74, 444.44 0 M13.69 0 C138.71 1.97, 265.3 0, 444.44 0 M444.44 0 C457.52 -0.45, 461.5 7.12, 458.13 13.69 M444.44 0 C452.56 -0.84, 458.93 5.97, 458.13 13.69 M458.13 13.69 C457.02 27.73, 456.75 32.89, 458.13 41.07 M458.13 13.69 C457.56 20.08, 459.05 28.75, 458.13 41.07 M458.13 41.07 C460.98 48.71, 451.92 58.23, 444.44 54.76 M458.13 41.07 C456.52 53.42, 450.77 55.63, 444.44 54.76 M444.44 54.76 C318.13 55.11, 190.39 55.54, 13.69 54.76 M444.44 54.76 C324.82 53.33, 204.96 52.95, 13.69 54.76 M13.69 54.76 C7.56 57.12, 0.69 52.63, 0 41.07 M13.69 54.76 C3.66 51.26, 4.46 52.51, 0 41.07 M0 41.07 C1.71 29.64, 3.14 17.56, 0 13.69 M0 41.07 C0.14 32.49, -1.48 23.73, 0 13.69 M0 13.69 C3.31 7.24, 8.26 0.33, 13.69 0 M0 13.69 C0.32 2.61, 5.23 -0.46, 13.69 0" stroke="#c06c84" stroke-width="2" fill="none"></path></g><g stroke-linecap="round" transform="translate(10 10) rotate(0 28.227737123677343 27.59932783929321)"><path d="M23.73 2.12 C29.72 0.58, 37.53 2.26, 42.83 4.76 C48.13 7.25, 53.23 12.02, 55.54 17.08 C57.84 22.14, 58.72 29.29, 56.67 35.11 C54.61 40.94, 48.91 48.68, 43.19 52.03 C37.46 55.39, 28.36 56.49, 22.34 55.24 C16.32 54, 10.81 48.77, 7.08 44.54 C3.35 40.31, -0.11 35.24, -0.03 29.85 C0.05 24.45, -0.07 16.15, 7.56 12.17 C15.19 8.19, 37.83 3.57, 45.74 5.96 C53.65 8.35, 55.35 25.84, 55 26.51 M35.22 -1.5 C40.8 -0.75, 47.15 4.89, 50.45 10.56 C53.76 16.22, 55.88 26.03, 55.06 32.48 C54.25 38.94, 49.76 45.15, 45.59 49.3 C41.41 53.44, 35.54 57.21, 30.01 57.37 C24.49 57.54, 17 53.91, 12.44 50.31 C7.87 46.71, 3.98 41.39, 2.64 35.76 C1.31 30.13, 2.44 22.12, 4.43 16.53 C6.41 10.94, 9.7 5.11, 14.54 2.25 C19.39 -0.61, 29.94 -0.44, 33.47 -0.62 C37 -0.8, 35.15 0.06, 35.73 1.18" stroke="none" stroke-width="0" fill="#bf687f"></path><path d="M20.89 0.17 C26.73 -1.15, 37.28 1.47, 42.48 4.49 C47.68 7.51, 49.98 12.9, 52.09 18.29 C54.21 23.68, 56.28 31.54, 55.16 36.83 C54.03 42.11, 50.38 46.91, 45.35 50 C40.32 53.1, 31.11 55.64, 24.98 55.4 C18.85 55.16, 12.93 52.97, 8.58 48.57 C4.23 44.16, -0.54 34.88, -1.14 28.97 C-1.74 23.07, -1.15 17.96, 4.96 13.15 C11.07 8.33, 28.35 1.08, 35.52 0.08 C42.7 -0.93, 48.22 6.51, 47.99 7.11 M11.19 6.23 C14.6 2.77, 20.11 2.39, 25.62 2.63 C31.13 2.88, 39.53 4.48, 44.25 7.72 C48.97 10.96, 52.44 17.07, 53.93 22.06 C55.41 27.05, 55.34 32.41, 53.15 37.65 C50.96 42.89, 46.82 50.98, 40.78 53.5 C34.74 56.03, 23.34 54.75, 16.9 52.82 C10.46 50.89, 5.16 46.8, 2.15 41.9 C-0.85 37.01, -2.46 29.41, -1.12 23.45 C0.22 17.49, 8.17 9.15, 10.2 6.15 C12.22 3.14, 10.53 4.61, 11.03 5.44" stroke="#c06c84" stroke-width="2" fill="none"></path></g><g stroke-linecap="round" transform="translate(94.31660562283378 10.000000369312147) rotate(0 28.227737123677343 27.59932783929321)"><path d="M52.52 13.33 C56.07 17.41, 57.79 24.3, 57.32 29.74 C56.85 35.17, 54.14 41.56, 49.72 45.93 C45.29 50.3, 37.33 55.2, 30.75 55.95 C24.17 56.7, 15.2 54.21, 10.24 50.43 C5.28 46.65, 2.23 38.76, 0.97 33.25 C-0.28 27.74, -0.1 22.18, 2.72 17.36 C5.53 12.54, 12.33 7.03, 17.87 4.33 C23.41 1.63, 30.1 -0.85, 35.95 1.14 C41.8 3.14, 49.87 12.74, 53 16.31 C56.13 19.87, 54.93 22.41, 54.73 22.51 M35.83 0.18 C41.23 2.36, 47.74 9.81, 50.68 15.35 C53.63 20.89, 54.19 27.61, 53.5 33.42 C52.8 39.22, 50.46 46.56, 46.51 50.18 C42.56 53.81, 35.43 55.13, 29.8 55.17 C24.18 55.2, 17.29 53.91, 12.75 50.4 C8.21 46.89, 4.41 40.08, 2.55 34.1 C0.68 28.12, -0.59 20.1, 1.56 14.53 C3.71 8.95, 9.52 2.88, 15.45 0.63 C21.38 -1.63, 33.26 0.39, 37.14 1 C41.03 1.61, 39.21 3.88, 38.79 4.28" stroke="none" stroke-width="0" fill="#bf687f"></path><path d="M20.96 3.24 C26.03 1.51, 31.15 1.69, 36.43 3.8 C41.72 5.91, 49.22 11.12, 52.68 15.89 C56.15 20.65, 58.39 26.83, 57.22 32.41 C56.04 37.99, 50.45 45.29, 45.64 49.38 C40.83 53.47, 34.55 57.2, 28.37 56.94 C22.18 56.68, 13.24 51.71, 8.51 47.82 C3.78 43.94, 0.8 39.56, -0.04 33.65 C-0.87 27.75, -1.66 18.28, 3.5 12.4 C8.65 6.51, 24.6 -0.32, 30.91 -1.66 C37.22 -3.01, 41.61 3.32, 41.35 4.31 M17.13 4.34 C21.86 2.58, 31.03 2.05, 36.63 3.69 C42.23 5.33, 47.53 9.86, 50.74 14.18 C53.95 18.5, 56.31 23.8, 55.88 29.61 C55.45 35.42, 53.22 44.99, 48.16 49.06 C43.09 53.14, 32.18 54.19, 25.47 54.06 C18.77 53.92, 12.3 51.93, 7.91 48.24 C3.52 44.55, -0.36 37.83, -0.87 31.92 C-1.39 26.01, 1.35 18.2, 4.82 12.79 C8.29 7.37, 17.3 0.89, 19.96 -0.57 C22.63 -2.03, 20.83 2.91, 20.81 4.03" stroke="#c06c84" stroke-width="2" fill="none"></path></g><g stroke-linecap="round" transform="translate(26.209839681383528 10.149661687836442) rotate(0 52.75868892033941 27.5229035337278)"><path d="M13.76 0 C40.06 -4.15, 60.75 -0.65, 91.76 0 C105.22 0.46, 105.51 7.63, 105.52 13.76 C103.03 22.03, 102.47 29.01, 105.52 41.28 C106.49 49.99, 105.28 59.72, 91.76 55.05 C73.85 60.46, 45.68 55.81, 13.76 55.05 C10.17 59.06, -1.19 54.75, 0 41.28 C-2.7 33.87, -1.39 23.48, 0 13.76 C2.76 6.96, 0.13 -4.51, 13.76 0" stroke="none" stroke-width="0" fill="#bf687f"></path><path d="M13.76 0 C34.36 -0.82, 60.59 3.97, 91.76 0 M13.76 0 C31.47 1.45, 45.36 -0.19, 91.76 0 M91.76 0 C101.62 1.22, 109.01 2.16, 105.52 13.76 M91.76 0 C99.51 -0.89, 109.46 3.38, 105.52 13.76 M105.52 13.76 C103.28 20.48, 102.46 30.34, 105.52 41.28 M105.52 13.76 C105.09 22.77, 105.21 29.71, 105.52 41.28 M105.52 41.28 C103.08 51.22, 100.69 51.62, 91.76 55.05 M105.52 41.28 C108 51.16, 96.37 53.3, 91.76 55.05 M91.76 55.05 C73.54 55.88, 55.56 56.48, 13.76 55.05 M91.76 55.05 C74.71 57.18, 56.58 54.45, 13.76 55.05 M13.76 55.05 C8.46 57.06, 3.18 52.5, 0 41.28 M13.76 55.05 C7.7 57.34, -1.2 54.39, 0 41.28 M0 41.28 C-3.26 35.64, 0.07 26.02, 0 13.76 M0 41.28 C1.39 33.25, -0.32 24.02, 0 13.76 M0 13.76 C0.58 4.19, 8.56 1.02, 13.76 0 M0 13.76 C-0.56 5.98, 4.38 -3.67, 13.76 0" stroke="#c06c84" stroke-width="2" fill="none"></path></g><g stroke-linecap="round" transform="translate(123.39974853032618 18.032473767323154) rotate(349.38762633892213 27.371122646198273 167.66376655655222)"><path d="M13.69 0 C25.02 -0.9, 32.03 1.16, 41.06 0 C50.18 3.05, 56.32 8.03, 54.74 13.69 C48.92 108.48, 52.15 206.99, 54.74 321.64 C59.09 335.44, 47.92 334.42, 41.06 335.33 C27.18 336.74, 30.02 340.07, 13.69 335.33 C3.37 339.62, 4.48 328.69, 0 321.64 C2.1 215.3, 5.29 106.18, 0 13.69 C-4.46 0.05, 3.85 -4.88, 13.69 0" stroke="none" stroke-width="0" fill="#bf687f"></path><path d="M13.69 0 C24.87 3.64, 24.5 4.13, 41.06 0 M13.69 0 C21.15 -0.72, 29.84 0.26, 41.06 0 M41.06 0 C53.67 -2.43, 53.51 3.79, 54.74 13.69 M41.06 0 C54.13 -1.2, 52.43 4.02, 54.74 13.69 M54.74 13.69 C50.19 80.24, 51.31 144.76, 54.74 321.64 M54.74 13.69 C52.41 95.66, 52.04 175.89, 54.74 321.64 M54.74 321.64 C54.5 327.34, 52.34 335.94, 41.06 335.33 M54.74 321.64 C50.18 329.02, 46.58 334.34, 41.06 335.33 M41.06 335.33 C32.47 337.66, 24 338.53, 13.69 335.33 M41.06 335.33 C30.84 334.14, 23.34 336.67, 13.69 335.33 M13.69 335.33 C7.74 337.37, 2.7 332.76, 0 321.64 M13.69 335.33 C3.36 339.26, -3.14 331.5, 0 321.64 M0 321.64 C3.63 214.61, 3.47 113.56, 0 13.69 M0 321.64 C-4 208, -3.89 95.45, 0 13.69 M0 13.69 C3.98 5.58, 4.08 1.21, 13.69 0 M0 13.69 C-0.21 0.89, 3.35 -1.63, 13.69 0" stroke="#c06c84" stroke-width="2" fill="none"></path></g><g stroke-linecap="round" transform="translate(124.39519625273806 385.0700634850491) rotate(0 55.847143149500425 51.388909249875496)"><path d="M99.59 20.74 C105.5 27.1, 109.71 38.69, 111.08 47.1 C112.44 55.52, 111.27 63.68, 107.77 71.22 C104.27 78.75, 97.85 87.22, 90.07 92.33 C82.29 97.44, 70.52 100.95, 61.07 101.87 C51.61 102.78, 41.33 101.39, 33.33 97.83 C25.32 94.27, 18.25 87.29, 13.02 80.5 C7.8 73.71, 3.13 65.26, 1.96 57.09 C0.78 48.92, 2.59 39.09, 5.97 31.48 C9.34 23.88, 14.96 16.42, 22.23 11.44 C29.5 6.47, 40.31 3.03, 49.59 1.62 C58.88 0.22, 67.81 -6.69, 77.95 3.02 C88.08 12.74, 109.55 44.61, 110.4 59.93 C111.24 75.24, 83.93 94.59, 83.04 94.9 M97.32 18.12 C104.54 23.23, 111.28 28.88, 113.29 37.54 C115.3 46.2, 112.35 61.54, 109.39 70.08 C106.43 78.63, 102.09 83.16, 95.52 88.81 C88.95 94.47, 79.6 101.84, 69.96 104.02 C60.32 106.2, 47.19 104.64, 37.68 101.9 C28.16 99.15, 19.1 93.87, 12.88 87.54 C6.67 81.22, 1.82 72.36, 0.37 63.93 C-1.09 55.5, 1.55 45.8, 4.15 36.96 C6.74 28.13, 9.35 17.31, 15.94 10.91 C22.52 4.51, 34.32 -0.41, 43.65 -1.45 C52.99 -2.49, 62.81 1.22, 71.94 4.68 C81.07 8.14, 93.89 17.45, 98.42 19.33 C102.96 21.22, 99.72 15.75, 99.15 16" stroke="none" stroke-width="0" fill="#bf687f"></path><path d="M103.75 22.67 C109.27 28.83, 110.79 39.78, 111.23 48.69 C111.67 57.6, 110.7 68.65, 106.39 76.15 C102.08 83.65, 93.31 88.97, 85.37 93.67 C77.44 98.38, 67.94 103.96, 58.77 104.4 C49.59 104.85, 38.61 100.76, 30.31 96.33 C22.02 91.91, 14.2 84.86, 8.98 77.86 C3.77 70.87, -0.22 62.37, -0.99 54.36 C-1.75 46.34, 0.19 37.2, 4.42 29.79 C8.65 22.38, 16.5 15, 24.39 9.91 C32.29 4.82, 42.1 0.13, 51.8 -0.73 C61.5 -1.59, 73.54 0.4, 82.59 4.74 C91.65 9.08, 102.22 21.04, 106.13 25.32 C110.04 29.6, 107.38 29.62, 106.05 30.42 M62.04 -0.04 C71.17 0.55, 81.66 5.38, 89.49 10.65 C97.33 15.92, 105.2 23.88, 109.06 31.6 C112.92 39.31, 113.87 47.97, 112.63 56.93 C111.39 65.89, 107.63 77.99, 101.62 85.36 C95.61 92.72, 85.72 98.7, 76.57 101.12 C67.42 103.54, 55.52 101.25, 46.72 99.89 C37.92 98.53, 30.53 97.68, 23.77 92.95 C17.01 88.22, 9.68 79.5, 6.17 71.51 C2.66 63.53, 1.79 53.32, 2.68 45.03 C3.58 36.74, 6.38 28.61, 11.54 21.76 C16.69 14.92, 24.58 7.88, 33.6 3.96 C42.61 0.04, 60.44 -1.41, 65.63 -1.78 C70.83 -2.15, 65.43 0.5, 64.76 1.74" stroke="#c06c84" stroke-width="2" fill="none"></path></g><g stroke-linecap="round" transform="translate(437.8402933556463 385.07006278879635) rotate(0 55.847143149500425 51.388909249875496)"><path d="M59.48 2.11 C68.59 1.84, 79.68 4.08, 87.54 8.51 C95.39 12.95, 102.88 21.07, 106.62 28.72 C110.36 36.37, 110.82 45.97, 109.97 54.39 C109.11 62.81, 106.11 72.32, 101.47 79.21 C96.84 86.1, 90.14 91.92, 82.16 95.73 C74.17 99.55, 62.88 102.34, 53.55 102.08 C44.22 101.83, 34.18 98.69, 26.2 94.19 C18.22 89.68, 9.93 82.57, 5.68 75.05 C1.43 67.54, 0.01 58, 0.7 49.1 C1.38 40.2, 4.75 29.16, 9.8 21.64 C14.86 14.12, 17.92 5.78, 31.04 3.97 C44.16 2.15, 75.83 5.42, 88.52 10.74 C101.21 16.07, 107.3 35.42, 107.19 35.92 M49.68 -2.3 C58.32 -4.06, 67.37 2.89, 75.96 6.31 C84.54 9.73, 95 11.67, 101.21 18.2 C107.43 24.73, 112.3 36.67, 113.26 45.49 C114.22 54.31, 110.92 63.25, 106.98 71.13 C103.04 79.02, 96.79 87.35, 89.62 92.79 C82.45 98.23, 72.65 102.45, 63.98 103.77 C55.3 105.1, 46.54 104.44, 37.58 100.73 C28.63 97.02, 16.45 88.79, 10.24 81.52 C4.04 74.24, 1.62 64.76, 0.35 57.08 C-0.92 49.4, -0.92 42.61, 2.63 35.45 C6.19 28.28, 13.86 20.15, 21.69 14.09 C29.51 8.04, 45.05 1.11, 49.59 -0.88 C54.13 -2.87, 49.25 0.73, 48.95 2.18" stroke="none" stroke-width="0" fill="#bf687f"></path><path d="M97.16 17.53 C103.54 23.48, 109.39 34.47, 111.14 42.69 C112.89 50.92, 110.75 58.76, 107.66 66.88 C104.58 75.01, 99.46 85.82, 92.63 91.46 C85.8 97.1, 75.76 99.55, 66.67 100.7 C57.58 101.85, 47.03 100.91, 38.1 98.38 C29.17 95.84, 19.49 91.37, 13.08 85.51 C6.68 79.66, 1.5 71.38, -0.33 63.25 C-2.16 55.11, -0.94 45.21, 2.1 36.7 C5.15 28.19, 10.58 18.27, 17.94 12.21 C25.29 6.16, 36.76 2.18, 46.23 0.37 C55.7 -1.43, 64.04 -5.11, 74.76 1.37 C85.48 7.85, 105.14 28.61, 110.53 39.26 C115.91 49.9, 107.99 65.35, 107.08 65.24 M33.76 2.99 C42.25 -0.81, 55.25 -1.63, 64.95 -0.68 C74.66 0.27, 84.48 2.9, 91.98 8.69 C99.47 14.48, 106.67 25.43, 109.95 34.07 C113.22 42.71, 113.44 52.74, 111.64 60.54 C109.85 68.34, 104.51 74.2, 99.15 80.88 C93.79 87.56, 87.65 96.79, 79.5 100.61 C71.35 104.43, 59.63 105.01, 50.27 103.79 C40.91 102.56, 31.19 98.39, 23.34 93.27 C15.5 88.15, 7.35 81.17, 3.21 73.04 C-0.92 64.92, -3.14 53.85, -1.48 44.54 C0.19 35.24, 7.02 24.02, 13.21 17.23 C19.4 10.44, 32.25 5.9, 35.65 3.79 C39.06 1.68, 32.97 3.46, 33.64 4.57" stroke="#c06c84" stroke-width="2" fill="none"></path></g><g stroke-linecap="round" transform="translate(152.49294617292162 312.31316771482705) rotate(0 28.227737123677343 28.914311106624666)"><path d="M39.74 1.23 C45.4 3.49, 50.67 11.77, 53.54 17.85 C56.41 23.93, 58.39 31.95, 56.97 37.71 C55.55 43.47, 50.28 49.02, 45.03 52.41 C39.77 55.8, 31.55 58.16, 25.46 58.05 C19.36 57.94, 12.58 56.12, 8.45 51.74 C4.32 47.35, 1.18 38.25, 0.67 31.74 C0.16 25.24, 2.38 17.89, 5.4 12.7 C8.43 7.51, 11.59 1.24, 18.8 0.61 C26.02 -0.02, 42.4 5.86, 48.68 8.91 C54.96 11.97, 56.46 18.55, 56.49 18.92 M49.42 8.92 C54.08 12.8, 58.04 20.31, 58.15 26.26 C58.26 32.21, 54.07 39.79, 50.08 44.62 C46.08 49.44, 39.64 53.43, 34.19 55.18 C28.73 56.93, 22.15 56.94, 17.33 55.1 C12.5 53.27, 8.17 49.75, 5.21 44.15 C2.26 38.55, -1.47 27.72, -0.39 21.5 C0.69 15.28, 6.13 10.89, 11.69 6.82 C17.26 2.75, 26.91 -3.62, 32.99 -2.91 C39.07 -2.21, 45.4 9.27, 48.16 11.06 C50.92 12.86, 49.55 7.6, 49.55 7.85" stroke="none" stroke-width="0" fill="#bf687f"></path><path d="M22.71 2.44 C28.09 0.64, 34.83 -0.21, 40.03 2.64 C45.23 5.49, 51.48 13.89, 53.91 19.54 C56.34 25.2, 56.42 31.26, 54.63 36.58 C52.84 41.91, 48.37 47.99, 43.18 51.48 C37.98 54.96, 29.69 57.77, 23.48 57.51 C17.28 57.24, 9.97 54.2, 5.94 49.88 C1.91 45.57, -0.54 38.19, -0.69 31.62 C-0.83 25.06, -3.67 14.13, 5.08 10.51 C13.82 6.88, 43.47 5.1, 51.78 9.88 C60.09 14.65, 55.53 38.73, 54.94 39.13 M3.94 8.82 C6.77 3.95, 15.2 0.62, 21.44 -0.28 C27.69 -1.18, 35.64 0.34, 41.4 3.43 C47.17 6.53, 53.59 12.69, 56.06 18.28 C58.52 23.86, 58.16 30.66, 56.18 36.95 C54.2 43.23, 49.65 52.27, 44.18 55.96 C38.71 59.66, 29.79 60.98, 23.38 59.13 C16.97 57.27, 9.13 49.71, 5.72 44.85 C2.3 39.98, 2.31 35.5, 2.91 29.94 C3.51 24.38, 8.22 14.51, 9.3 11.5 C10.37 8.48, 9.54 11.35, 9.36 11.84" stroke="#c06c84" stroke-width="2" fill="none"></path></g><g stroke-linecap="round" transform="translate(493.81760081088214 315.0186231973539) rotate(0 28.227737123677343 27.547529020854995)"><path d="M33.34 2.12 C39.27 3.31, 47.48 7.58, 51.36 11.88 C55.24 16.19, 57.04 22.29, 56.62 27.94 C56.2 33.58, 52.83 40.94, 48.83 45.74 C44.84 50.53, 38.42 55.82, 32.68 56.71 C26.94 57.59, 19.48 54.38, 14.4 51.04 C9.33 47.69, 4.59 42.25, 2.22 36.64 C-0.15 31.03, -1.71 23.02, 0.19 17.36 C2.1 11.71, 6.98 5.6, 13.63 2.7 C20.27 -0.19, 34.99 -0.21, 40.07 -0.01 C45.16 0.2, 44.35 3.15, 44.14 3.91 M30.07 0.43 C35.28 -0.13, 40.76 2.56, 44.77 6.02 C48.78 9.49, 52.73 15.4, 54.14 21.24 C55.54 27.08, 55.52 35.27, 53.2 41.06 C50.88 46.84, 46.2 53.95, 40.23 55.93 C34.25 57.91, 23.43 55.18, 17.38 52.95 C11.32 50.73, 6.25 48.12, 3.9 42.59 C1.55 37.07, 2.19 25.32, 3.28 19.8 C4.37 14.28, 5.93 12.85, 10.44 9.45 C14.95 6.04, 27.02 0.44, 30.36 -0.64 C33.71 -1.72, 31.05 2.12, 30.51 2.95" stroke="none" stroke-width="0" fill="#bf687f"></path><path d="M31.87 -0.21 C37.43 0.41, 45.42 7.07, 49.43 11.52 C53.44 15.97, 55.9 21.19, 55.93 26.5 C55.97 31.81, 53.62 38.73, 49.64 43.41 C45.67 48.09, 38.25 53.02, 32.09 54.59 C25.93 56.16, 17.84 55.53, 12.66 52.84 C7.48 50.15, 2.96 44.35, 1 38.44 C-0.95 32.52, -1.52 23.25, 0.95 17.34 C3.41 11.44, 8.47 5.37, 15.81 3.01 C23.15 0.66, 39.04 1.67, 45 3.22 C50.96 4.78, 52.34 11.59, 51.56 12.36 M30.2 -0.32 C36.2 0.27, 43.55 4.37, 48.12 8.71 C52.69 13.06, 56.98 20.14, 57.6 25.77 C58.21 31.4, 55.43 37.4, 51.82 42.5 C48.22 47.59, 42.07 54.5, 35.96 56.34 C29.85 58.18, 20.93 57.03, 15.15 53.51 C9.38 49.99, 3.11 40.79, 1.32 35.23 C-0.47 29.68, 1.97 25.14, 4.41 20.18 C6.86 15.23, 10.96 8.58, 15.99 5.52 C21.01 2.46, 31.96 2.17, 34.57 1.82 C37.19 1.47, 32.43 3.15, 31.67 3.43" stroke="#c06c84" stroke-width="2" fill="none"></path></g><g stroke-linecap="round" transform="translate(465.0806608380881 221.48035225551666) rotate(0 28.227737123677343 27.547529020854995)"><path d="M13.05 7.06 C17.53 3.24, 24.79 0.04, 30.45 0.21 C36.12 0.38, 42.77 3.66, 47.05 8.08 C51.33 12.5, 55.27 20.96, 56.11 26.74 C56.95 32.53, 55.35 38.25, 52.09 42.78 C48.83 47.32, 42.7 52.4, 36.53 53.96 C30.36 55.52, 20.81 54.7, 15.07 52.15 C9.33 49.6, 4.18 44.21, 2.11 38.68 C0.04 33.15, -1.77 25.52, 2.63 18.98 C7.03 12.44, 21.64 1.87, 28.52 -0.54 C35.4 -2.96, 44.14 3.78, 43.91 4.51 M34.51 0.68 C39.5 1.58, 46.08 5.78, 49.79 10.71 C53.51 15.64, 56.76 23.73, 56.81 30.26 C56.86 36.8, 54.75 45.88, 50.1 49.93 C45.45 53.98, 35.3 54.36, 28.9 54.55 C22.49 54.73, 15.88 54.94, 11.67 51.04 C7.47 47.14, 5.08 36.59, 3.67 31.15 C2.27 25.7, 0.71 23.29, 3.26 18.38 C5.81 13.48, 13.12 4.19, 18.98 1.71 C24.83 -0.78, 35.75 3.25, 38.39 3.49 C41.04 3.74, 35.61 2.89, 34.83 3.2" stroke="none" stroke-width="0" fill="#bf687f"></path><path d="M49.47 11.57 C53.56 15.58, 55.91 21.25, 55.93 26.56 C55.95 31.87, 53.59 38.78, 49.6 43.46 C45.62 48.13, 38.2 53.04, 32.03 54.6 C25.86 56.16, 17.78 55.52, 12.61 52.81 C7.43 50.11, 2.92 44.3, 0.98 38.38 C-0.96 32.46, -1.51 23.19, 0.97 17.29 C3.45 11.39, 10.27 6, 15.86 2.98 C21.46 -0.03, 27.72 -4.92, 34.55 -0.8 C41.38 3.33, 54.71 19.87, 56.83 27.75 C58.96 35.62, 47.78 46.76, 47.3 46.44 M16.4 1.29 C22.18 -1.22, 31.95 -1.4, 38.19 0.18 C44.42 1.75, 50.44 5.21, 53.81 10.72 C57.18 16.23, 59.46 26.71, 58.42 33.25 C57.37 39.78, 52.55 46.65, 47.56 49.91 C42.58 53.16, 34.18 52.67, 28.53 52.8 C22.88 52.93, 17.94 53.72, 13.68 50.71 C9.42 47.69, 4.37 40.5, 2.98 34.72 C1.6 28.94, 3.05 21.06, 5.38 16.03 C7.71 11, 15.21 6.71, 16.96 4.54 C18.72 2.36, 15.39 3.36, 15.91 2.96" stroke="#c06c84" stroke-width="2" fill="none"></path></g><g stroke-linecap="round" transform="translate(522.0994492914924 57.13001201443285) rotate(0 28.227737123677343 27.59354673450946)"><path d="M49.17 9.05 C52.96 12.69, 55.36 20.41, 55.57 26.63 C55.79 32.84, 53.9 41.73, 50.46 46.34 C47.01 50.95, 40.67 53.34, 34.9 54.28 C29.13 55.22, 21.57 54.77, 15.85 52 C10.12 49.23, 3.12 43.26, 0.57 37.67 C-1.97 32.09, -1.79 24.34, 0.58 18.48 C2.95 12.62, 9.32 5.67, 14.79 2.53 C20.26 -0.61, 26.49 -2.94, 33.4 -0.34 C40.3 2.26, 52.46 13.14, 56.21 18.12 C59.95 23.09, 56.48 29.14, 55.88 29.48 M30.39 -1.23 C36.48 -0.74, 45.08 3.89, 49.81 8.97 C54.54 14.05, 58.88 23.38, 58.77 29.25 C58.67 35.13, 53.3 39.76, 49.19 44.19 C45.07 48.63, 39.33 55.08, 34.09 55.87 C28.84 56.65, 23.01 51.43, 17.72 48.92 C12.44 46.41, 4.73 45.91, 2.38 40.81 C0.02 35.71, 1.35 24.03, 3.57 18.31 C5.79 12.6, 11.07 9.27, 15.67 6.53 C20.27 3.79, 28.68 2.54, 31.17 1.86 C33.66 1.19, 30.63 1.99, 30.6 2.46" stroke="none" stroke-width="0" fill="#bf687f"></path><path d="M19.12 0.3 C24.51 -2.33, 33.2 -2.14, 38.7 0.25 C44.2 2.65, 49.53 8.92, 52.14 14.69 C54.74 20.46, 55.54 28.86, 54.31 34.89 C53.09 40.91, 49.44 47.61, 44.78 50.85 C40.12 54.09, 31.99 54.93, 26.35 54.34 C20.72 53.75, 15.08 51.35, 10.97 47.31 C6.85 43.26, 2.69 35.84, 1.66 30.07 C0.62 24.31, 0.55 17.56, 4.75 12.73 C8.94 7.9, 21.36 3.19, 26.82 1.08 C32.29 -1.04, 37.37 0.02, 37.52 0.03 M23.38 -0.57 C29.41 -2.38, 37.43 -2.39, 42.96 0.86 C48.5 4.11, 54.49 12.75, 56.6 18.91 C58.71 25.08, 57.95 32.87, 55.63 37.83 C53.32 42.78, 47.42 45.54, 42.7 48.65 C37.99 51.75, 32.83 56.61, 27.33 56.45 C21.83 56.28, 13.93 52.06, 9.72 47.68 C5.51 43.3, 2.82 35.91, 2.05 30.17 C1.28 24.44, 2.1 18.11, 5.13 13.27 C8.15 8.42, 17.11 3.52, 20.19 1.11 C23.27 -1.31, 23.07 -1.6, 23.61 -1.21" stroke="#c06c84" stroke-width="2" fill="none"></path></g><g stroke-linecap="round" transform="translate(171.17847422936939 315.0310239993148) rotate(0 182.45264563309547 27.46464838733965)"><path d="M13.73 0 C93.44 1.82, 176.91 -2.61, 351.17 0 C359.42 0.21, 367.25 9.91, 364.91 13.73 C369.01 18.05, 369.29 29.24, 364.91 41.2 C362.83 53.3, 357.35 57.97, 351.17 54.93 C261.6 55.06, 165.82 57.57, 13.73 54.93 C-0.3 53.11, 4.15 52.61, 0 41.2 C2.92 31.6, -0.64 24.04, 0 13.73 C-0.37 0.55, 6.16 -2.19, 13.73 0" stroke="none" stroke-width="0" fill="#bf687f"></path><path d="M13.73 0 C143.91 3.7, 274.43 0.05, 351.17 0 M13.73 0 C110.9 1.45, 209.13 1.97, 351.17 0 M351.17 0 C363.18 -1.48, 363.26 8.05, 364.91 13.73 M351.17 0 C358.72 3.22, 362.1 5.45, 364.91 13.73 M364.91 13.73 C365.05 17.84, 362.91 26.75, 364.91 41.2 M364.91 13.73 C365.42 20.58, 365.72 27.5, 364.91 41.2 M364.91 41.2 C367.9 52.71, 361.02 57.36, 351.17 54.93 M364.91 41.2 C364 46.85, 364.79 57.24, 351.17 54.93 M351.17 54.93 C224.43 57.29, 97.32 56.16, 13.73 54.93 M351.17 54.93 C244.8 51.39, 137.09 51.31, 13.73 54.93 M13.73 54.93 C7.89 57.61, 3.7 50.69, 0 41.2 M13.73 54.93 C4.89 52.97, 0.67 49.89, 0 41.2 M0 41.2 C1.07 30.05, -3.33 18.2, 0 13.73 M0 41.2 C-1.58 35.47, -0.33 28.2, 0 13.73 M0 13.73 C0.33 4.58, 6.75 1.13, 13.73 0 M0 13.73 C2.85 5.24, 2.14 -0.63, 13.73 0" stroke="#c06c84" stroke-width="2" fill="none"></path></g><g stroke-linecap="round" transform="translate(147.6978839352687 221.34839831471254) rotate(0 179.26822363494693 27.623869487247077)"><path d="M13.81 0 C122.01 -6.44, 223.21 -4.76, 344.72 0 C356.28 5.33, 352.98 5.29, 358.54 13.81 C363.38 29.34, 357.02 38.84, 358.54 41.44 C355.55 53.69, 352.26 58.36, 344.72 55.25 C226.07 49.73, 110.25 48.98, 13.81 55.25 C8.75 57.51, 4.61 55.81, 0 41.44 C-0.43 38.43, -0.87 23.7, 0 13.81 C1.58 2.42, 0.99 4.49, 13.81 0" stroke="none" stroke-width="0" fill="#bf687f"></path><path d="M13.81 0 C102.15 -5.24, 191.59 -6.34, 344.72 0 M13.81 0 C96.12 2.88, 177.47 2.86, 344.72 0 M344.72 0 C352.28 3.47, 357.14 7.41, 358.54 13.81 M344.72 0 C351.13 0.87, 358.26 0.67, 358.54 13.81 M358.54 13.81 C357.1 20.46, 357.77 31.57, 358.54 41.44 M358.54 13.81 C359.81 19.93, 360.25 30.31, 358.54 41.44 M358.54 41.44 C359.23 53.08, 353.15 52.2, 344.72 55.25 M358.54 41.44 C362.99 52.96, 357.59 57.6, 344.72 55.25 M344.72 55.25 C225.41 52.21, 101.86 55.21, 13.81 55.25 M344.72 55.25 C270.87 55.4, 199.85 56.34, 13.81 55.25 M13.81 55.25 C8.3 55.58, 0.27 48.94, 0 41.44 M13.81 55.25 C5.27 54.79, 4.57 51.82, 0 41.44 M0 41.44 C-3.36 32.43, -1.59 23.8, 0 13.81 M0 41.44 C-0.07 32.23, 0.67 19.97, 0 13.81 M0 13.81 C2.18 5.73, 7.08 0.58, 13.81 0 M0 13.81 C-2.43 3.97, 1.71 -2.32, 13.81 0" stroke="#c06c84" stroke-width="2" fill="none"></path></g><g stroke-linecap="round" transform="translate(494.408517329035 71.29307335432304) rotate(19.08535349948739 27.527290915483718 97.07784791475137)"><path d="M13.76 0 C23.25 0.52, 36.9 5.65, 41.29 0 C44.91 0.68, 60.64 8.6, 55.05 13.76 C56.56 63.15, 55.64 109.69, 55.05 180.39 C53.38 192.68, 53.23 196.53, 41.29 194.16 C30.34 192.24, 33.31 196.32, 13.76 194.16 C9.2 199.32, -2.9 193.2, 0 180.39 C-0.43 123.67, 1.52 72.82, 0 13.76 C-3.62 9.08, 6.46 2.74, 13.76 0" stroke="none" stroke-width="0" fill="#bf687f"></path><path d="M13.76 0 C23.91 -3.34, 32.84 0.12, 41.29 0 M13.76 0 C21.39 -0.55, 25.34 1.93, 41.29 0 M41.29 0 C49.07 2.8, 52.62 5.35, 55.05 13.76 M41.29 0 C50.19 -3.94, 57.53 5.29, 55.05 13.76 M55.05 13.76 C52.93 45.44, 52.87 82.23, 55.05 180.39 M55.05 13.76 C58.33 58.26, 57.17 101.62, 55.05 180.39 M55.05 180.39 C54.27 186.52, 54.34 196.17, 41.29 194.16 M55.05 180.39 C58.71 191.92, 53.58 196.45, 41.29 194.16 M41.29 194.16 C34.39 195.45, 23.03 194.51, 13.76 194.16 M41.29 194.16 C34.58 195.49, 26.41 194.31, 13.76 194.16 M13.76 194.16 C4.86 192.45, 0.58 189.17, 0 180.39 M13.76 194.16 C9.16 195.33, -0.56 190.96, 0 180.39 M0 180.39 C1.24 129.43, 6.2 78.29, 0 13.76 M0 180.39 C1.12 117.58, 2.04 55.34, 0 13.76 M0 13.76 C2.48 5.16, 2.47 -0.55, 13.76 0 M0 13.76 C-2.89 2.27, 5.39 -0.39, 13.76 0" stroke="#c06c84" stroke-width="2" fill="none"></path></g><g stroke-linecap="round"><g transform="translate(105.14356930947633 408.7448093084629) rotate(0 -15.26581955246138 -6.592058443108385)"><path d="M0 0 C-7.31 -3.16, -14.62 -6.31, -30.53 -13.18 M0 0 C-10.08 -4.35, -20.17 -8.71, -30.53 -13.18" stroke="#f783ac" stroke-width="4" fill="none"></path></g></g><mask></mask><g stroke-linecap="round"><g transform="translate(99.48775470190503 433.03134041465205) rotate(0 -22.551778884318537 2.7756035549930402)"><path d="M0 0 C-13.2 1.63, -26.41 3.25, -45.1 5.55 M0 0 C-9.24 1.14, -18.48 2.27, -45.1 5.55" stroke="#f783ac" stroke-width="4" fill="none"></path></g></g><mask></mask><g stroke-linecap="round"><g transform="translate(114.30162384237246 458.216025635342) rotate(0 -25.400892344392105 8.835092989353711)"><path d="M0 0 C-16.86 5.86, -33.72 11.73, -50.8 17.67 M0 0 C-15.95 5.55, -31.89 11.09, -50.8 17.67" stroke="#f783ac" stroke-width="4" fill="none"></path></g></g><mask></mask><g stroke-linecap="round"><g transform="translate(163.22791429519566 114.19348163699624) rotate(0 174.7126038565607 53.997156420424346)" fill-rule="evenodd"><path d="M0 0 C0 0, 0 0, 0 0 M0 0 C0 0, 0 0, 0 0 M3.55 20.31 C9.72 13.2, 15.9 6.1, 21.26 -0.07 M3.55 20.31 C7.9 15.3, 12.26 10.28, 21.26 -0.07 M7.75 39.86 C19.91 25.88, 32.06 11.89, 42.52 -0.14 M7.75 39.86 C19.77 26.04, 31.78 12.21, 42.52 -0.14 M11.3 60.17 C24.4 45.09, 37.51 30.02, 63.78 -0.21 M11.3 60.17 C26.01 43.24, 40.73 26.31, 63.78 -0.21 M15.5 79.72 C41.14 50.23, 66.77 20.74, 85.04 -0.28 M15.5 79.72 C33.56 58.95, 51.62 38.17, 85.04 -0.28 M19.05 100.03 C50.43 63.93, 81.81 27.83, 105.64 0.41 M19.05 100.03 C41.17 74.58, 63.3 49.12, 105.64 0.41 M34.4 106.75 C57.61 80.06, 80.82 53.36, 126.91 0.34 M34.4 106.75 C64.36 72.29, 94.32 37.82, 126.91 0.34 M55 107.44 C87.28 70.32, 119.55 33.19, 148.17 0.27 M55 107.44 C76.16 83.1, 97.31 58.77, 148.17 0.27 M76.26 107.37 C102.5 77.19, 128.74 47.01, 169.43 0.2 M76.26 107.37 C109.38 69.28, 142.49 31.19, 169.43 0.2 M97.53 107.3 C129 71.1, 160.47 34.89, 190.69 0.13 M97.53 107.3 C130.05 69.89, 162.57 32.48, 190.69 0.13 M118.79 107.23 C144.2 77.99, 169.62 48.75, 211.95 0.06 M118.79 107.23 C139.29 83.64, 159.8 60.05, 211.95 0.06 M139.39 107.92 C162.79 81, 186.19 54.09, 233.21 0 M139.39 107.92 C174.49 67.54, 209.58 27.17, 233.21 0 M160.65 107.85 C185.33 79.46, 210.01 51.07, 254.47 -0.07 M160.65 107.85 C191.82 71.99, 222.99 36.14, 254.47 -0.07 M181.91 107.78 C207.28 78.6, 232.65 49.41, 275.73 -0.14 M181.91 107.78 C215.03 69.68, 248.15 31.58, 275.73 -0.14 M203.17 107.71 C223.41 84.43, 243.66 61.14, 296.33 0.54 M203.17 107.71 C236.19 69.73, 269.21 31.75, 296.33 0.54 M223.77 108.4 C258.18 68.82, 292.58 29.24, 317.59 0.47 M223.77 108.4 C255.23 72.21, 286.69 36.02, 317.59 0.47 M245.03 108.33 C275.73 73.02, 306.43 37.7, 338.85 0.41 M245.03 108.33 C272.97 76.19, 300.91 44.05, 338.85 0.41 M266.29 108.26 C295.27 74.93, 324.24 41.6, 342.4 20.71 M266.29 108.26 C286.75 84.73, 307.2 61.21, 342.4 20.71 M287.55 108.19 C300 93.88, 312.44 79.56, 327.57 62.15 M287.55 108.19 C296.43 97.98, 305.31 87.76, 327.57 62.15 M308.16 108.88 C309.9 106.88, 311.64 104.88, 313.41 102.84 M308.16 108.88 C309.73 107.07, 311.3 105.26, 313.41 102.84 M20.22 106.3 C20.22 106.3, 20.22 106.3, 20.22 106.3 M20.22 106.3 C20.22 106.3, 20.22 106.3, 20.22 106.3 M45.06 106.69 C35.81 98.65, 26.56 90.61, 15.62 81.1 M45.06 106.69 C37.03 99.72, 29.01 92.74, 15.62 81.1 M69.14 106.42 C57.04 95.9, 44.93 85.38, 10.27 55.25 M69.14 106.42 C51.91 91.45, 34.68 76.47, 10.27 55.25 M93.97 106.81 C76.2 91.36, 58.42 75.91, 5.67 30.06 M93.97 106.81 C73.6 89.1, 53.22 71.39, 5.67 30.06 M118.81 107.2 C85.18 77.97, 51.55 48.73, 1.08 4.86 M118.81 107.2 C83.42 76.44, 48.03 45.67, 1.08 4.86 M142.89 106.94 C100.9 70.43, 58.9 33.92, 19.88 0 M142.89 106.94 C104.04 73.16, 65.19 39.39, 19.88 0 M167.73 107.33 C120.95 66.66, 74.17 26, 43.96 -0.27 M167.73 107.33 C141.51 84.54, 115.29 61.74, 43.96 -0.27 M191.81 107.06 C159.87 79.3, 127.94 51.54, 68.79 0.12 M191.81 107.06 C158.88 78.43, 125.94 49.8, 68.79 0.12 M216.65 107.45 C175.37 71.57, 134.09 35.69, 92.87 -0.14 M216.65 107.45 C188.42 82.91, 160.18 58.37, 92.87 -0.14 M241.48 107.84 C197.2 69.35, 152.92 30.85, 117.71 0.25 M241.48 107.84 C201.27 72.88, 161.05 37.92, 117.71 0.25 M265.57 107.57 C224.74 72.09, 183.92 36.6, 141.79 -0.02 M265.57 107.57 C216.11 64.59, 166.66 21.6, 141.79 -0.02 M290.4 107.96 C263.88 84.91, 237.37 61.86, 166.63 0.37 M290.4 107.96 C250.26 73.07, 210.11 38.17, 166.63 0.37 M312.22 105.73 C267.13 66.53, 222.04 27.34, 190.71 0.1 M312.22 105.73 C272.75 71.42, 233.29 37.12, 190.71 0.1 M318.19 89.72 C288.83 64.2, 259.48 38.68, 214.79 -0.16 M318.19 89.72 C297.38 71.63, 276.57 53.54, 214.79 -0.16 M323.4 73.05 C290.9 44.8, 258.4 16.55, 239.63 0.23 M323.4 73.05 C302.38 54.78, 281.36 36.51, 239.63 0.23 M329.37 57.04 C303.22 34.31, 277.08 11.58, 263.71 -0.04 M329.37 57.04 C310.36 40.52, 291.36 23.99, 263.71 -0.04 M335.34 41.03 C319.54 27.29, 303.74 13.56, 288.55 0.35 M335.34 41.03 C317.87 25.84, 300.4 10.66, 288.55 0.35 M340.55 24.36 C333.15 17.92, 325.74 11.48, 312.63 0.08 M340.55 24.36 C334.38 18.99, 328.2 13.62, 312.63 0.08 M346.52 8.35 C343.77 5.95, 341.01 3.56, 337.47 0.47 M346.52 8.35 C343.48 5.7, 340.44 3.06, 337.47 0.47" stroke="#b96d7c" stroke-width="2" fill="none"></path><path d="M0 0 C7.47 39.16, 14.95 78.32, 20.3 106.37 M0 0 C4.21 22.06, 8.42 44.13, 20.3 106.37 M20.3 106.37 C83.23 106.72, 146.16 107.07, 311.53 107.99 M20.3 106.37 C124.06 106.95, 227.81 107.53, 311.53 107.99 M311.53 107.99 C323.89 72.87, 336.24 37.74, 349.43 0.27 M311.53 107.99 C321.73 79.01, 331.92 50.03, 349.43 0.27 M349.43 0.27 C212.35 0.16, 75.27 0.06, 0 0 M349.43 0.27 C230.58 0.18, 111.73 0.09, 0 0 M0 0 C0 0, 0 0, 0 0 M0 0 C0 0, 0 0, 0 0" stroke="#b96d7c" stroke-width="4" fill="none"></path></g></g><mask></mask></svg>